<svg width="155" height="54" viewBox="0 0 155 54" fill="none" xmlns="http://www.w3.org/2000/svg">
<path d="M146.005 30.6904C145.39 29.6221 144.241 28.9568 143.012 28.9568H134.525C132.61 28.9568 131.068 30.509 131.068 32.4139V45.7685C131.068 46.5345 130.453 47.1494 129.687 47.1494H127.49H125.293C124.527 47.1494 123.912 46.5345 123.912 45.7685V32.424C123.912 30.509 122.36 28.9669 120.455 28.9669H111.968C110.729 28.9669 109.59 29.6221 108.975 30.7005L100.468 45.4359C99.1378 47.744 100.801 50.6266 103.462 50.6266H112.875C114.79 50.6266 116.333 49.0744 116.333 47.1695V41.8176C116.333 41.4447 116.181 41.0919 115.919 40.8299L114.055 38.9955C113.621 38.5621 112.875 38.8745 112.875 39.4894V45.7887C112.875 46.5547 112.261 47.1695 111.495 47.1695H104.661C104.127 47.1695 103.794 46.595 104.066 46.1314L111.575 33.1295C111.827 32.7062 112.281 32.4341 112.775 32.4341H119.074C119.84 32.4341 120.455 33.0489 120.455 33.8149V47.1695C120.455 49.0845 122.007 50.6266 123.912 50.6266H127.5H131.088C133.003 50.6266 134.545 49.0744 134.545 47.1695V33.8048C134.545 33.0388 135.16 32.424 135.926 32.424H142.225C142.719 32.424 143.173 32.6861 143.425 33.1195L150.934 46.1213C151.196 46.5849 150.863 47.1594 150.339 47.1594H143.505C142.739 47.1594 142.125 46.5446 142.125 45.7786V39.4793C142.125 38.8645 141.389 38.552 140.945 38.9854L139.081 40.8198C138.819 41.0818 138.667 41.4346 138.667 41.8075V47.1594C138.667 49.0744 140.22 50.6165 142.125 50.6165H151.538C154.199 50.6165 155.862 47.7339 154.532 45.4259L146.005 30.6904Z" fill="white"/>
<path d="M113.268 25.3083H115.264C115.758 25.3083 116.212 25.0462 116.464 24.6128L126.885 6.57148C127.147 6.10785 127.812 6.10785 128.085 6.57148L138.506 24.6229C138.758 25.0462 139.212 25.3183 139.706 25.3183H141.701C142.235 25.3183 142.568 24.7438 142.296 24.2802L128.679 0.695448C128.145 -0.231816 126.815 -0.231816 126.28 0.695448L112.674 24.2802C112.402 24.7338 112.734 25.3083 113.268 25.3083Z" fill="white"/>
<path d="M10.7759 21C10.2905 21 9.97555 20.9883 9.83088 20.965C9.84022 21.0583 9.84488 21.126 9.84488 21.168C9.84488 22.5027 9.42488 23.5153 8.58488 24.206C7.74488 24.8967 6.46622 25.242 4.74888 25.242C3.56822 25.242 2.66522 24.9177 2.03988 24.269C1.41455 23.625 1.10188 22.7057 1.10188 21.511C1.10188 20.909 1.16722 20.3 1.29788 19.684C1.42855 19.068 1.61755 18.4893 1.86488 17.948H2.03988C1.81122 18.62 1.69688 19.327 1.69688 20.069C1.69688 20.6057 1.82522 21.063 2.08188 21.441C2.33855 21.8237 2.71422 22.113 3.20888 22.309C3.70355 22.5097 4.30322 22.61 5.00788 22.61C6.05788 22.61 6.92122 22.5353 7.59788 22.386C8.27922 22.2367 8.77155 22.0687 9.07488 21.882C9.38288 21.6953 9.53688 21.5437 9.53688 21.427C9.53688 21.2637 9.30588 21.1377 8.84388 21.049C8.38655 20.9603 7.70988 20.8717 6.81388 20.783C6.23988 20.7223 5.80122 20.6733 5.49788 20.636C5.19922 20.5987 4.94955 20.5497 4.74888 20.489V20.405C5.01488 20.0317 5.25522 19.6677 5.46988 19.313C5.68922 18.9537 5.87355 18.5827 6.02288 18.2C6.49422 18.2793 7.05422 18.3283 7.70288 18.347C8.35155 18.361 9.51822 18.368 11.2029 18.368L10.7759 21ZM14.6011 17.437C14.6011 18.2537 14.4797 18.921 14.2371 19.439C13.9991 19.957 13.6001 20.3467 13.0401 20.608C12.4847 20.8693 11.7311 21 10.7791 21C10.4991 21 10.3591 20.7177 10.3591 20.153C10.3591 19.565 10.4337 19.1217 10.5831 18.823C10.7324 18.5197 10.9401 18.368 11.2061 18.368C11.7054 18.368 12.1954 18.34 12.6761 18.284C13.1614 18.228 13.5557 18.1533 13.8591 18.06C14.1624 17.9667 14.3141 17.871 14.3141 17.773C14.3141 17.689 14.2207 17.542 14.0341 17.332C13.8474 17.122 13.6094 16.8933 13.3201 16.646C13.0354 16.3987 12.7554 16.1817 12.4801 15.995C12.6387 15.8223 12.8184 15.5213 13.0191 15.092C13.2244 14.658 13.4111 14.224 13.5791 13.79H13.6701C13.6887 13.8507 13.7354 13.958 13.8101 14.112C14.0341 14.616 14.2207 15.1293 14.3701 15.652C14.5241 16.1747 14.6011 16.7697 14.6011 17.437ZM15.1051 11.214C15.0211 11.3633 14.9137 11.6223 14.7831 11.991C14.6524 12.355 14.5637 12.6327 14.5171 12.824C13.9711 12.8613 13.4274 12.8917 12.8861 12.915C12.3447 12.9337 11.9247 12.943 11.6261 12.943C11.2247 12.943 10.9284 12.894 10.7371 12.796C10.5411 12.6933 10.4431 12.516 10.4431 12.264C10.4431 12.18 10.4571 12.089 10.4851 11.991C10.5084 11.8883 10.5457 11.76 10.5971 11.606C10.6857 11.3307 10.7464 11.0973 10.7791 10.906H10.8631C10.8631 11.0693 10.9494 11.1813 11.1221 11.242C11.2901 11.3027 11.5724 11.333 11.9691 11.333C12.2491 11.333 12.7321 11.3237 13.4181 11.305C14.1041 11.2817 14.6664 11.2513 15.1051 11.214ZM19.574 21C18.9347 21 18.426 20.8997 18.048 20.699C17.67 20.4983 17.3853 20.16 17.194 19.684C17.0073 19.208 16.8953 18.543 16.858 17.689C16.802 16.289 16.7437 15.1993 16.683 14.42C16.627 13.6407 16.5617 13.034 16.487 12.6C16.4123 12.166 16.3097 11.6853 16.179 11.158C16.459 10.878 16.753 10.535 17.061 10.129C17.369 9.71833 17.642 9.32633 17.88 8.953H17.964C17.964 9.12567 17.9733 9.45 17.992 9.926C18.0293 10.5887 18.048 11.2537 18.048 11.921C18.048 12.3363 18.034 13.048 18.006 14.056C17.978 15.1573 17.964 16.002 17.964 16.59C17.964 17.192 18.125 17.64 18.447 17.934C18.7737 18.2233 19.2917 18.368 20.001 18.368L19.574 21ZM28.1451 18.368L27.7181 21H27.2911C26.6517 21 26.1127 20.9603 25.6741 20.881C25.2354 20.8017 24.8527 20.6547 24.5261 20.44C24.2041 20.2253 23.9357 19.922 23.7211 19.53C23.1984 19.936 22.7364 20.244 22.3351 20.454C21.9337 20.6593 21.5231 20.8017 21.1031 20.881C20.6877 20.9603 20.1767 21 19.5701 21C19.2901 21 19.1501 20.7177 19.1501 20.153C19.1501 19.565 19.2247 19.1217 19.3741 18.823C19.5234 18.5197 19.7311 18.368 19.9971 18.368C20.6131 18.368 21.1357 18.3587 21.5651 18.34C21.9944 18.3167 22.3701 18.277 22.6921 18.221C22.5287 17.9643 22.2697 17.5957 21.9151 17.115C21.6304 16.737 21.4134 16.4337 21.2641 16.205C20.8581 16.331 20.5197 16.4593 20.2491 16.59L20.1651 16.506C20.2771 16.2727 20.4147 15.96 20.5781 15.568C20.7414 15.176 20.8534 14.8657 20.9141 14.637C21.3667 14.4223 21.9197 14.2427 22.5731 14.098C23.2264 13.9487 23.8377 13.874 24.4071 13.874C24.9437 13.874 25.5084 13.9393 26.1011 14.07C26.6984 14.2007 27.2374 14.3897 27.7181 14.637C27.6294 14.7723 27.5104 15.0127 27.3611 15.358C27.2117 15.6987 27.0764 16.051 26.9551 16.415C26.6937 16.7463 26.1034 17.3507 25.1841 18.228C25.4034 18.2933 25.6857 18.333 26.0311 18.347C26.3764 18.361 26.9107 18.368 27.6341 18.368H28.1451ZM24.1411 15.736C23.7397 15.736 23.3127 15.771 22.8601 15.841C22.4074 15.9063 21.9641 15.9997 21.5301 16.121C21.8334 16.345 22.1414 16.5737 22.4541 16.807C22.7714 17.0357 23.0537 17.241 23.3011 17.423L23.9031 17.857C24.6077 17.4977 25.4757 17.0217 26.5071 16.429L26.8501 16.233C26.0521 15.9017 25.1491 15.736 24.1411 15.736ZM24.1551 12.432C24.0244 12.2547 23.8167 12.0493 23.5321 11.816C23.2474 11.5827 23.0024 11.4217 22.7971 11.333V11.242L23.9031 9.884C24.1597 10.01 24.4304 10.2013 24.7151 10.458C25.0044 10.71 25.2144 10.9433 25.3451 11.158L24.1551 12.432ZM33.5775 21C32.9568 21 32.4482 20.825 32.0515 20.475C31.6548 20.1203 31.4565 19.5183 31.4565 18.669C31.4565 18.4357 31.4682 18.2233 31.4915 18.032H31.4005C31.3912 18.7413 31.2558 19.313 30.9945 19.747C30.7378 20.181 30.3412 20.4983 29.8045 20.699C29.2725 20.8997 28.5772 21 27.7185 21C27.4385 21 27.2985 20.7177 27.2985 20.153C27.2985 19.565 27.3732 19.1217 27.5225 18.823C27.6718 18.5197 27.8795 18.368 28.1455 18.368C29.1255 18.368 29.8488 18.3073 30.3155 18.186C30.7822 18.0647 31.1135 17.85 31.3095 17.542C31.5102 17.234 31.6712 16.7463 31.7925 16.079H31.9605V16.926C31.9605 17.3833 32.1168 17.738 32.4295 17.99C32.7468 18.242 33.2695 18.368 33.9975 18.368L33.5775 21ZM26.6195 24.003C26.7035 23.8537 26.8108 23.5947 26.9415 23.226C27.0722 22.862 27.1608 22.5843 27.2075 22.393C27.7535 22.3557 28.2972 22.3253 28.8385 22.302C29.3798 22.2833 29.7998 22.274 30.0985 22.274C30.4998 22.274 30.7962 22.323 30.9875 22.421C31.1835 22.5237 31.2815 22.701 31.2815 22.953C31.2815 23.037 31.2675 23.128 31.2395 23.226C31.2162 23.3287 31.1788 23.457 31.1275 23.611C31.0388 23.8863 30.9782 24.1197 30.9455 24.311H30.8615C30.8615 24.1477 30.7752 24.0357 30.6025 23.975C30.4345 23.9143 30.1522 23.884 29.7555 23.884C29.4755 23.884 28.9925 23.8933 28.3065 23.912C27.6205 23.9353 27.0582 23.9657 26.6195 24.003ZM38.5821 21C37.8587 21 37.2637 20.7993 36.7971 20.398C36.3351 19.9967 36.1041 19.3387 36.1041 18.424C36.1041 18.3493 36.1087 18.2187 36.1181 18.032H36.0341C36.0061 18.7787 35.8964 19.369 35.7051 19.803C35.5184 20.237 35.2571 20.545 34.9211 20.727C34.5851 20.909 34.1651 21 33.6611 21C33.5164 21 33.3951 20.93 33.2971 20.79C33.1991 20.6453 33.1501 20.433 33.1501 20.153C33.1501 19.565 33.2247 19.1217 33.3741 18.823C33.5234 18.5197 33.7311 18.368 33.9971 18.368C34.3517 18.368 34.6714 18.3423 34.9561 18.291C35.2454 18.235 35.4694 18.165 35.6281 18.081C35.7867 17.997 35.8661 17.906 35.8661 17.808C35.8101 16.4127 35.7517 15.3253 35.6911 14.546C35.6304 13.762 35.5627 13.153 35.4881 12.719C35.4181 12.285 35.3177 11.8043 35.1871 11.277C35.6351 10.829 36.1997 10.0543 36.8811 8.953H36.9651C36.9651 9.12567 36.9744 9.45 36.9931 9.926C37.0304 10.5887 37.0491 11.2537 37.0491 11.921C37.0491 12.3363 37.0351 13.048 37.0071 14.056C36.9791 15.1573 36.9651 16.002 36.9651 16.59C36.9651 17.192 37.1261 17.64 37.4481 17.934C37.7747 18.2233 38.2927 18.368 39.0021 18.368L38.5821 21ZM44.433 21C43.8123 21 43.3036 20.825 42.907 20.475C42.5103 20.1203 42.312 19.5183 42.312 18.669C42.312 18.4357 42.3236 18.2233 42.347 18.032H42.256C42.2466 18.7413 42.1113 19.313 41.85 19.747C41.5933 20.181 41.1966 20.4983 40.66 20.699C40.128 20.8997 39.4326 21 38.574 21C38.294 21 38.154 20.7177 38.154 20.153C38.154 19.565 38.2286 19.1217 38.378 18.823C38.5273 18.5197 38.735 18.368 39.001 18.368C39.981 18.368 40.7043 18.3073 41.171 18.186C41.6376 18.0647 41.969 17.85 42.165 17.542C42.3656 17.234 42.5266 16.7463 42.648 16.079H42.816V16.926C42.816 17.3833 42.9723 17.738 43.285 17.99C43.6023 18.242 44.125 18.368 44.853 18.368L44.433 21ZM39.932 24.654C39.7733 24.4673 39.5586 24.2573 39.288 24.024C39.0173 23.7953 38.7793 23.6367 38.574 23.548V23.464L39.68 22.106C39.9366 22.232 40.2073 22.421 40.492 22.673C40.7813 22.9297 40.9913 23.1653 41.122 23.38L39.932 24.654ZM48.2475 17.437C48.2475 18.2537 48.1262 18.921 47.8835 19.439C47.6455 19.957 47.2465 20.3467 46.6865 20.608C46.1312 20.8693 45.3775 21 44.4255 21C44.1455 21 44.0055 20.7177 44.0055 20.153C44.0055 19.565 44.0802 19.1217 44.2295 18.823C44.3789 18.5197 44.5865 18.368 44.8525 18.368C45.3519 18.368 45.8419 18.34 46.3225 18.284C46.8079 18.228 47.2022 18.1533 47.5055 18.06C47.8089 17.9667 47.9605 17.871 47.9605 17.773C47.9605 17.689 47.8672 17.542 47.6805 17.332C47.4939 17.122 47.2559 16.8933 46.9665 16.646C46.6819 16.3987 46.4019 16.1817 46.1265 15.995C46.2852 15.8223 46.4649 15.5213 46.6655 15.092C46.8709 14.658 47.0575 14.224 47.2255 13.79H47.3165C47.3352 13.8507 47.3819 13.958 47.4565 14.112C47.6805 14.616 47.8672 15.1293 48.0165 15.652C48.1705 16.1747 48.2475 16.7697 48.2475 17.437ZM48.7515 11.214C48.6675 11.3633 48.5602 11.6223 48.4295 11.991C48.2989 12.355 48.2102 12.6327 48.1635 12.824C47.6175 12.8613 47.0739 12.8917 46.5325 12.915C45.9912 12.9337 45.5712 12.943 45.2725 12.943C44.8712 12.943 44.5749 12.894 44.3835 12.796C44.1875 12.6933 44.0895 12.516 44.0895 12.264C44.0895 12.18 44.1035 12.089 44.1315 11.991C44.1549 11.8883 44.1922 11.76 44.2435 11.606C44.3322 11.3307 44.3929 11.0973 44.4255 10.906H44.5095C44.5095 11.0693 44.5959 11.1813 44.7685 11.242C44.9365 11.3027 45.2189 11.333 45.6155 11.333C45.8955 11.333 46.3785 11.3237 47.0645 11.305C47.7505 11.2817 48.3129 11.2513 48.7515 11.214ZM57.6257 16.415C57.6257 17.0823 57.768 17.5747 58.0527 17.892C58.3373 18.2093 58.7597 18.368 59.3197 18.368L58.8997 21C58.3677 21 57.9267 20.8903 57.5767 20.671C57.2313 20.447 56.9607 20.0737 56.7647 19.551C56.5733 19.0283 56.4637 18.3237 56.4357 17.437H56.3517C56.2957 18.095 56.1767 18.6293 55.9947 19.04C55.8173 19.446 55.563 19.747 55.2317 19.943C54.905 20.139 54.4873 20.237 53.9787 20.237C53.3907 20.237 52.945 20.0993 52.6417 19.824C52.343 19.544 52.1937 19.145 52.1937 18.627C52.1937 18.137 52.2987 17.689 52.5087 17.283C52.7187 16.8723 53.0943 16.4337 53.6357 15.967C54.1817 15.4957 54.9633 14.9403 55.9807 14.301C55.9293 14.0023 55.8827 13.7737 55.8407 13.615C56.074 13.433 56.3307 13.1857 56.6107 12.873C56.8953 12.5603 57.138 12.243 57.3387 11.921H57.4017C57.4157 12.0423 57.425 12.124 57.4297 12.166C57.4857 12.642 57.5323 13.1903 57.5697 13.811C57.607 14.427 57.6257 15.295 57.6257 16.415ZM54.2307 17.689C54.8233 17.689 55.311 17.619 55.6937 17.479C56.0763 17.3343 56.2677 17.122 56.2677 16.842C56.2677 16.4173 56.2117 15.82 56.0997 15.05C55.3017 15.428 54.6693 15.7617 54.2027 16.051C53.736 16.3403 53.4117 16.5783 53.2297 16.765C53.0477 16.947 52.9567 17.087 52.9567 17.185C52.9567 17.3017 52.994 17.3973 53.0687 17.472C53.1433 17.542 53.2717 17.5957 53.4537 17.633C53.6403 17.6703 53.8993 17.689 54.2307 17.689ZM62.6284 17.948C63.3144 17.948 63.9677 17.9037 64.5884 17.815C65.209 17.7263 65.7714 17.5933 66.2754 17.416V17.507C66.1027 17.6797 65.8507 18.0203 65.5194 18.529C65.1927 19.033 64.9407 19.4717 64.7634 19.845C64.2547 19.9617 63.627 20.125 62.8804 20.335C62.325 20.489 61.8677 20.6103 61.5084 20.699C61.1537 20.783 60.757 20.8553 60.3184 20.916C59.8797 20.972 59.4037 21 58.8904 21C58.6104 21 58.4704 20.7177 58.4704 20.153C58.4704 19.565 58.545 19.1217 58.6944 18.823C58.8437 18.5197 59.0514 18.368 59.3174 18.368H60.1224C60.0197 18.2327 59.945 18.0763 59.8984 17.899C59.8517 17.7217 59.8284 17.5117 59.8284 17.269C59.8284 16.5737 59.9707 15.9203 60.2554 15.309C60.5447 14.693 60.9297 14.2007 61.4104 13.832C61.891 13.4633 62.409 13.279 62.9644 13.279C63.333 13.279 63.6504 13.349 63.9164 13.489C64.187 13.6243 64.3924 13.8157 64.5324 14.063C64.677 14.3103 64.7494 14.5973 64.7494 14.924C64.7494 15.204 64.6934 15.505 64.5814 15.827H64.4904C64.4904 15.617 64.3364 15.4513 64.0284 15.33C63.7204 15.2087 63.3097 15.148 62.7964 15.148C62.3857 15.148 61.9774 15.2087 61.5714 15.33C61.17 15.4513 60.841 15.617 60.5844 15.827C60.3324 16.0323 60.2064 16.2587 60.2064 16.506C60.2064 16.758 60.3137 16.996 60.5284 17.22C60.743 17.4393 61.0347 17.6167 61.4034 17.752C61.7767 17.8827 62.185 17.948 62.6284 17.948ZM73.019 21H72.298C72.1627 21.8307 71.9317 22.533 71.605 23.107C71.2783 23.681 70.8863 24.108 70.429 24.388C69.9717 24.6727 69.477 24.815 68.945 24.815C68.5623 24.815 68.1937 24.7567 67.839 24.64C67.489 24.528 67.0783 24.367 66.607 24.157C66.5697 24.143 66.4507 24.0917 66.25 24.003C66.054 23.919 65.8767 23.8513 65.718 23.8V23.716C66.418 23.5947 67.188 23.38 68.028 23.072C68.8727 22.764 69.645 22.4047 70.345 21.994C71.0497 21.588 71.556 21.1773 71.864 20.762C71.5187 20.846 71.164 20.9067 70.8 20.944C70.4407 20.9813 70.0207 21 69.54 21C68.126 21 67.419 20.209 67.419 18.627C67.419 17.9597 67.5193 17.3413 67.72 16.772C67.9207 16.2027 68.2077 15.7477 68.581 15.407C68.9543 15.0617 69.386 14.889 69.876 14.889C70.3427 14.889 70.751 15.029 71.101 15.309C71.4557 15.5843 71.7403 15.9833 71.955 16.506C72.1743 17.024 72.3167 17.6447 72.382 18.368H73.439L73.019 21ZM67.755 17.773C67.755 17.899 67.8133 18.0203 67.93 18.137C68.0513 18.2537 68.2497 18.3493 68.525 18.424C68.805 18.4987 69.1713 18.536 69.624 18.536C70.5947 18.536 71.3553 18.515 71.906 18.473C71.7007 17.9363 71.395 17.5163 70.989 17.213C70.583 16.9097 70.1 16.758 69.54 16.758C69.2227 16.758 68.9263 16.8163 68.651 16.933C68.3803 17.0497 68.1633 17.1897 68 17.353C67.8367 17.5163 67.755 17.6563 67.755 17.773ZM82.1764 21C81.6071 21 81.1498 20.797 80.8044 20.391C80.4638 19.9803 80.2724 19.362 80.2304 18.536H80.1464C80.1044 19.4413 79.9551 20.1203 79.6984 20.573C79.4418 21.0257 79.1104 21.252 78.7044 21.252C78.1118 21.252 77.5541 21.1563 77.0314 20.965C76.5134 20.7737 76.0958 20.51 75.7784 20.174C75.4658 19.8333 75.3094 19.4577 75.3094 19.047C75.3094 18.851 75.3258 18.6387 75.3584 18.41C75.3911 18.1767 75.4308 17.9643 75.4774 17.773H75.3934C75.3328 17.9223 75.2674 18.151 75.1974 18.459C75.0761 18.9583 74.9454 19.3783 74.8054 19.719C74.6701 20.0597 74.4554 20.3583 74.1614 20.615C73.8721 20.8717 73.4894 21 73.0134 21C72.8828 21 72.7801 20.9323 72.7054 20.797C72.6308 20.657 72.5934 20.4423 72.5934 20.153C72.5934 19.5697 72.6704 19.1263 72.8244 18.823C72.9738 18.5197 73.1791 18.368 73.4404 18.368C73.7811 18.368 74.0588 18.3353 74.2734 18.27C74.4928 18.2047 74.6911 18.0763 74.8684 17.885C75.0504 17.689 75.2254 17.3973 75.3934 17.01L75.7294 17.269C76.0468 16.6063 76.3314 16.093 76.5834 15.729C76.8354 15.365 77.0874 15.106 77.3394 14.952C77.5914 14.798 77.8761 14.721 78.1934 14.721C78.4688 14.721 78.7184 14.777 78.9424 14.889C79.1664 14.9963 79.3951 15.197 79.6284 15.491C79.8664 15.785 80.1231 16.2073 80.3984 16.758C80.6784 17.3273 80.9888 17.738 81.3294 17.99C81.6748 18.242 82.0994 18.368 82.6034 18.368L82.1764 21ZM77.5984 16.59C76.8471 16.59 76.3104 16.8443 75.9884 17.353C76.1704 17.591 76.4458 17.808 76.8144 18.004C77.1831 18.2 77.5728 18.354 77.9834 18.466C78.3941 18.5733 78.7464 18.627 79.0404 18.627C79.3158 18.627 79.5258 18.5943 79.6704 18.529C79.8151 18.459 79.8874 18.3773 79.8874 18.284C79.8874 18.074 79.7871 17.836 79.5864 17.57C79.3858 17.2993 79.1104 17.0683 78.7604 16.877C78.4104 16.6857 78.0231 16.59 77.5984 16.59ZM85.2326 24.654C85.0739 24.4673 84.8593 24.2573 84.5886 24.024C84.3179 23.7953 84.0799 23.6367 83.8746 23.548V23.464L84.9806 22.106C85.2373 22.232 85.5079 22.421 85.7926 22.673C86.0819 22.9297 86.2919 23.1653 86.4226 23.38L85.2326 24.654ZM92.1066 18.368L91.6796 21H91.5116C90.8769 21 90.3893 20.9347 90.0486 20.804C89.7079 20.6687 89.4699 20.4563 89.3346 20.167C89.1993 19.8777 89.1316 19.4763 89.1316 18.963C89.1316 18.683 89.1549 18.326 89.2016 17.892C88.9963 17.9993 88.7979 18.123 88.6066 18.263C88.4199 18.403 88.1656 18.6013 87.8436 18.858C87.2883 19.3107 86.7843 19.6793 86.3316 19.964C85.8836 20.244 85.3119 20.4867 84.6166 20.692C83.9259 20.8973 83.1116 21 82.1736 21C81.8936 21 81.7536 20.7177 81.7536 20.153C81.7536 19.565 81.8283 19.1217 81.9776 18.823C82.1269 18.5197 82.3346 18.368 82.6006 18.368C83.8886 18.368 84.9409 18.3283 85.7576 18.249C86.5789 18.1697 87.2089 18.0763 87.6476 17.969C88.0909 17.857 88.5553 17.7123 89.0406 17.535C89.3113 17.437 89.4839 17.3763 89.5586 17.353V17.269C89.0779 17.1803 88.6369 17.08 88.2356 16.968C87.8343 16.856 87.3629 16.7137 86.8216 16.541C86.3269 16.3823 85.9326 16.2657 85.6386 16.191C85.3446 16.1163 85.0669 16.079 84.8056 16.079C84.4603 16.079 84.1593 16.1467 83.9026 16.282C83.6506 16.4173 83.4429 16.632 83.2796 16.926H83.1956C83.3869 16.1607 83.5829 15.575 83.7836 15.169C83.9889 14.763 84.2036 14.4877 84.4276 14.343C84.6563 14.1983 84.9246 14.126 85.2326 14.126C85.5359 14.126 85.8743 14.182 86.2476 14.294C86.6256 14.406 87.1389 14.581 87.7876 14.819C88.3383 15.0243 88.8026 15.1923 89.1806 15.323C89.5633 15.449 89.9739 15.561 90.4126 15.659C90.8559 15.757 91.2899 15.813 91.7146 15.827V15.911C91.5746 16.037 91.3809 16.2727 91.1336 16.618C90.8909 16.9633 90.7043 17.2643 90.5736 17.521C90.1723 17.535 89.7779 17.6283 89.3906 17.801C89.4699 17.9597 89.6099 18.081 89.8106 18.165C90.0113 18.2443 90.2749 18.298 90.6016 18.326C90.9329 18.354 91.3763 18.368 91.9316 18.368H92.1066ZM96.7715 14.553C97.2102 14.553 97.5882 14.7023 97.9055 15.001C98.2275 15.2997 98.4725 15.701 98.6405 16.205C98.8085 16.7043 98.8925 17.2573 98.8925 17.864C98.8925 18.4893 98.8202 19.04 98.6755 19.516C98.5309 19.992 98.3395 20.3583 98.1015 20.615C97.8682 20.8717 97.6232 21 97.3665 21C96.7692 21 96.2092 20.9113 95.6865 20.734C95.1685 20.552 94.7532 20.3 94.4405 19.978C94.1279 19.656 93.9715 19.2897 93.9715 18.879C93.9715 18.6783 93.9879 18.4637 94.0205 18.235C94.0532 18.0063 94.0929 17.7963 94.1395 17.605H94.0555C94.0135 17.7077 93.9715 17.8453 93.9295 18.018C93.8875 18.1907 93.8619 18.3003 93.8525 18.347C93.7405 18.8603 93.6169 19.2967 93.4815 19.656C93.3509 20.0153 93.1385 20.3303 92.8445 20.601C92.5552 20.867 92.1655 21 91.6755 21C91.5449 21 91.4422 20.9323 91.3675 20.797C91.2929 20.657 91.2555 20.4423 91.2555 20.153C91.2555 19.5697 91.3325 19.1263 91.4865 18.823C91.6359 18.5197 91.8412 18.368 92.1025 18.368C92.4479 18.368 92.7279 18.333 92.9425 18.263C93.1619 18.193 93.3602 18.0507 93.5375 17.836C93.7149 17.6167 93.8875 17.2853 94.0555 16.842L94.3915 17.094C94.7089 16.4407 94.9912 15.932 95.2385 15.568C95.4905 15.1993 95.7355 14.938 95.9735 14.784C96.2162 14.63 96.4822 14.553 96.7715 14.553ZM96.2605 16.415C95.5092 16.415 94.9725 16.6717 94.6505 17.185C94.8279 17.423 95.1009 17.633 95.4695 17.815C95.8382 17.9923 96.2279 18.13 96.6385 18.228C97.0492 18.3213 97.4039 18.368 97.7025 18.368C97.9965 18.368 98.2112 18.347 98.3465 18.305C98.4819 18.263 98.5495 18.2 98.5495 18.116C98.5495 17.906 98.4492 17.6657 98.2485 17.395C98.0479 17.1243 97.7725 16.8933 97.4225 16.702C97.0725 16.5107 96.6852 16.415 96.2605 16.415ZM9.78055 39.45C9.78055 40.4033 9.98388 41.1067 10.3905 41.56C10.7972 42.0133 11.4005 42.24 12.2005 42.24L11.6005 46C10.8405 46 10.2105 45.8433 9.71055 45.53C9.21721 45.21 8.83055 44.6767 8.55055 43.93C8.27721 43.1833 8.12055 42.1767 8.08055 40.91H7.96055C7.88055 41.85 7.71055 42.6133 7.45055 43.2C7.19721 43.78 6.83388 44.21 6.36055 44.49C5.89388 44.77 5.29721 44.91 4.57055 44.91C3.73055 44.91 3.09388 44.7133 2.66055 44.32C2.23388 43.92 2.02055 43.35 2.02055 42.61C2.02055 41.91 2.17055 41.27 2.47055 40.69C2.77055 40.1033 3.30721 39.4767 4.08055 38.81C4.86055 38.1367 5.97721 37.3433 7.43055 36.43C7.35721 36.0033 7.29055 35.6767 7.23055 35.45C7.56388 35.19 7.93055 34.8367 8.33055 34.39C8.73721 33.9433 9.08388 33.49 9.37055 33.03H9.46055C9.48055 33.2033 9.49388 33.32 9.50055 33.38C9.58055 34.06 9.64721 34.8433 9.70055 35.73C9.75388 36.61 9.78055 37.85 9.78055 39.45ZM4.93055 41.27C5.77721 41.27 6.47388 41.17 7.02055 40.97C7.56721 40.7633 7.84055 40.46 7.84055 40.06C7.84055 39.4533 7.76055 38.6 7.60055 37.5C6.46055 38.04 5.55721 38.5167 4.89055 38.93C4.22388 39.3433 3.76055 39.6833 3.50055 39.95C3.24055 40.21 3.11055 40.41 3.11055 40.55C3.11055 40.7167 3.16388 40.8533 3.27055 40.96C3.37721 41.06 3.56055 41.1367 3.82055 41.19C4.08721 41.2433 4.45721 41.27 4.93055 41.27ZM18.8673 36.79C19.4939 36.79 20.0339 37.0033 20.4873 37.43C20.9473 37.8567 21.2973 38.43 21.5373 39.15C21.7773 39.8633 21.8973 40.6533 21.8973 41.52C21.8973 42.4133 21.7939 43.2 21.5873 43.88C21.3806 44.56 21.1073 45.0833 20.7673 45.45C20.4339 45.8167 20.0839 46 19.7173 46C18.8639 46 18.0639 45.8733 17.3173 45.62C16.5773 45.36 15.9839 45 15.5373 44.54C15.0906 44.08 14.8673 43.5567 14.8673 42.97C14.8673 42.6833 14.8906 42.3767 14.9373 42.05C14.9839 41.7233 15.0406 41.4233 15.1073 41.15H14.9873C14.9273 41.2967 14.8673 41.4933 14.8073 41.74C14.7473 41.9867 14.7106 42.1433 14.6973 42.21C14.5373 42.9433 14.3606 43.5667 14.1673 44.08C13.9806 44.5933 13.6773 45.0433 13.2573 45.43C12.8439 45.81 12.2873 46 11.5873 46C11.4006 46 11.2539 45.9033 11.1473 45.71C11.0406 45.51 10.9873 45.2033 10.9873 44.79C10.9873 43.9567 11.0973 43.3233 11.3173 42.89C11.5306 42.4567 11.8239 42.24 12.1973 42.24C12.6906 42.24 13.0906 42.19 13.3973 42.09C13.7106 41.99 13.9939 41.7867 14.2473 41.48C14.5006 41.1667 14.7473 40.6933 14.9873 40.06L15.4673 40.42C15.9206 39.4867 16.3239 38.76 16.6773 38.24C17.0373 37.7133 17.3873 37.34 17.7273 37.12C18.0739 36.9 18.4539 36.79 18.8673 36.79ZM18.1373 39.45C17.0639 39.45 16.2973 39.8167 15.8373 40.55C16.0906 40.89 16.4806 41.19 17.0073 41.45C17.5339 41.7033 18.0906 41.9 18.6773 42.04C19.2639 42.1733 19.7706 42.24 20.1973 42.24C20.6173 42.24 20.9239 42.21 21.1173 42.15C21.3106 42.09 21.4073 42 21.4073 41.88C21.4073 41.58 21.2639 41.2367 20.9773 40.85C20.6906 40.4633 20.2973 40.1333 19.7973 39.86C19.2973 39.5867 18.7439 39.45 18.1373 39.45ZM28.9952 46C28.0819 46 27.3552 45.8567 26.8152 45.57C26.2752 45.2833 25.8686 44.8 25.5952 44.12C25.3286 43.44 25.1686 42.49 25.1152 41.27C25.0352 39.27 24.9519 37.7133 24.8652 36.6C24.7852 35.4867 24.6919 34.62 24.5852 34C24.4786 33.38 24.3319 32.6933 24.1452 31.94C24.5452 31.54 24.9652 31.05 25.4052 30.47C25.8452 29.8833 26.2352 29.3233 26.5752 28.79H26.6952C26.6952 29.0367 26.7086 29.5 26.7352 30.18C26.7886 31.1267 26.8152 32.0767 26.8152 33.03C26.8152 33.6233 26.7952 34.64 26.7552 36.08C26.7152 37.6533 26.6952 38.86 26.6952 39.7C26.6952 40.56 26.9252 41.2 27.3852 41.62C27.8519 42.0333 28.5919 42.24 29.6052 42.24L28.9952 46ZM28.9896 46C28.5896 46 28.3896 45.5967 28.3896 44.79C28.3896 43.95 28.4963 43.3167 28.7096 42.89C28.9229 42.4567 29.2196 42.24 29.5996 42.24H33.8396L33.2396 46H28.9896ZM33.2279 46C32.8279 46 32.6279 45.5967 32.6279 44.79C32.6279 43.95 32.7346 43.3167 32.9479 42.89C33.1612 42.4567 33.4579 42.24 33.8379 42.24H38.0779L37.4779 46H33.2279ZM37.4662 46C37.0662 46 36.8662 45.5967 36.8662 44.79C36.8662 43.95 36.9728 43.3167 37.1862 42.89C37.3995 42.4567 37.6962 42.24 38.0762 42.24H42.3162L41.7162 46H37.4662ZM41.7045 46C41.3045 46 41.1045 45.5967 41.1045 44.79C41.1045 43.95 41.2111 43.3167 41.4245 42.89C41.6378 42.4567 41.9345 42.24 42.3145 42.24H46.5545L45.9545 46H41.7045ZM45.9427 46C45.5427 46 45.3427 45.5967 45.3427 44.79C45.3427 43.95 45.4494 43.3167 45.6627 42.89C45.8761 42.4567 46.1727 42.24 46.5527 42.24H50.7927L50.1927 46H45.9427ZM50.181 46C49.781 46 49.581 45.5967 49.581 44.79C49.581 43.95 49.6877 43.3167 49.901 42.89C50.1143 42.4567 50.411 42.24 50.791 42.24H55.031L54.431 46H50.181ZM54.4193 46C54.0193 46 53.8193 45.5967 53.8193 44.79C53.8193 43.95 53.926 43.3167 54.1393 42.89C54.3526 42.4567 54.6493 42.24 55.0293 42.24H59.2693L58.6693 46H54.4193ZM58.6576 46C58.2576 46 58.0576 45.5967 58.0576 44.79C58.0576 43.95 58.1642 43.3167 58.3776 42.89C58.5909 42.4567 58.8876 42.24 59.2676 42.24H63.5076L62.9076 46H58.6576ZM62.8959 46C62.4959 46 62.2959 45.5967 62.2959 44.79C62.2959 43.95 62.4025 43.3167 62.6159 42.89C62.8292 42.4567 63.1259 42.24 63.5059 42.24H67.7459L67.1459 46H62.8959ZM67.1341 46C66.7341 46 66.5341 45.5967 66.5341 44.79C66.5341 43.95 66.6408 43.3167 66.8541 42.89C67.0675 42.4567 67.3641 42.24 67.7441 42.24H71.9841L71.3841 46H67.1341ZM71.3724 46C70.9724 46 70.7724 45.5967 70.7724 44.79C70.7724 43.95 70.8791 43.3167 71.0924 42.89C71.3058 42.4567 71.6024 42.24 71.9824 42.24H76.2224L75.6224 46H71.3724ZM75.6107 46C75.2107 46 75.0107 45.5967 75.0107 44.79C75.0107 43.95 75.1174 43.3167 75.3307 42.89C75.544 42.4567 75.8407 42.24 76.2207 42.24H80.4607L79.8607 46H75.6107ZM79.849 46C79.449 46 79.249 45.5967 79.249 44.79C79.249 43.95 79.3557 43.3167 79.569 42.89C79.7823 42.4567 80.079 42.24 80.459 42.24H84.699L84.099 46H79.849ZM89.5473 40.91C89.5473 42.0767 89.3739 43.03 89.0273 43.77C88.6873 44.51 88.1173 45.0667 87.3173 45.44C86.5239 45.8133 85.4473 46 84.0873 46C83.6873 46 83.4873 45.5967 83.4873 44.79C83.4873 43.95 83.5939 43.3167 83.8073 42.89C84.0206 42.4567 84.3173 42.24 84.6973 42.24C85.4106 42.24 86.1106 42.2 86.7973 42.12C87.4906 42.04 88.0539 41.9333 88.4873 41.8C88.9206 41.6667 89.1373 41.53 89.1373 41.39C89.1373 41.27 89.0039 41.06 88.7373 40.76C88.4706 40.46 88.1306 40.1333 87.7173 39.78C87.3106 39.4267 86.9106 39.1167 86.5173 38.85C86.7439 38.6033 87.0006 38.1733 87.2873 37.56C87.5806 36.94 87.8473 36.32 88.0873 35.7H88.2173C88.2439 35.7867 88.3106 35.94 88.4173 36.16C88.7373 36.88 89.0039 37.6133 89.2173 38.36C89.4373 39.1067 89.5473 39.9567 89.5473 40.91ZM82.2773 50.17C82.4039 49.95 82.5606 49.5933 82.7473 49.1C82.9339 48.6133 83.0573 48.2433 83.1173 47.99C83.8973 47.9367 84.6739 47.8933 85.4473 47.86C86.2206 47.8333 86.8206 47.82 87.2473 47.82C87.8206 47.82 88.2439 47.89 88.5173 48.03C88.7973 48.1767 88.9373 48.43 88.9373 48.79C88.9373 48.9033 88.9206 49.0233 88.8873 49.15C88.8539 49.2767 88.8006 49.44 88.7273 49.64C88.5873 50.0467 88.4973 50.37 88.4573 50.61H88.3373C88.3373 50.3767 88.2139 50.2167 87.9673 50.13C87.7273 50.0433 87.3239 50 86.7573 50C86.3573 50 85.6673 50.0133 84.6873 50.04C83.7073 50.0733 82.9039 50.1167 82.2773 50.17ZM85.6673 53.64C85.4473 53.42 85.1573 53.1733 84.7973 52.9C84.4373 52.6267 84.1206 52.43 83.8473 52.31V52.18L85.1873 50.49C85.5339 50.6567 85.8839 50.8867 86.2373 51.18C86.5973 51.48 86.8506 51.7333 86.9973 51.94L85.6673 53.64ZM97.9815 24.79C97.5948 25.9967 97.0282 26.9467 96.2815 27.64C95.5348 28.3267 94.6048 28.67 93.4915 28.67C92.8848 28.67 92.3515 28.5967 91.8915 28.45C91.4315 28.2967 90.9515 28.0967 90.4515 27.85C90.4115 27.83 90.3348 27.7933 90.2215 27.74C90.1015 27.68 90.0048 27.64 89.9315 27.62C89.8515 27.5933 89.7882 27.58 89.7415 27.58C89.6082 27.58 89.4682 27.6433 89.3215 27.77C89.1682 27.8967 88.9115 28.1433 88.5515 28.51L87.9215 29.15V29.03C88.4815 28.1633 88.9348 27.4933 89.2815 27.02C89.6215 26.5467 89.9148 26.2 90.1615 25.98C90.4082 25.7533 90.6315 25.64 90.8315 25.64C90.9382 25.64 91.0548 25.6633 91.1815 25.71C91.3148 25.7567 91.4848 25.8267 91.6915 25.92C92.1248 26.1 92.5082 26.24 92.8415 26.34C93.1748 26.44 93.5548 26.49 93.9815 26.49C94.5748 26.49 95.0915 26.44 95.5315 26.34C95.9715 26.24 96.3782 26.0667 96.7515 25.82C97.1315 25.5733 97.5015 25.23 97.8615 24.79H97.9815ZM94.3015 30C94.3015 30.2733 94.3248 30.89 94.3715 31.85C94.4248 32.95 94.4648 33.9433 94.4915 34.83C94.5248 35.7167 94.5415 36.6533 94.5415 37.64C94.5415 39.1267 94.5048 40.3033 94.4315 41.17C94.3582 42.03 94.2615 42.6967 94.1415 43.17C94.0282 43.6367 93.8548 44.1867 93.6215 44.82C93.3882 45.44 93.2115 45.9533 93.0915 46.36H92.9615C92.9682 46.2267 92.9715 46.01 92.9715 45.71C92.9715 44.6367 92.8982 43.2167 92.7515 41.45C92.6115 39.6767 92.4482 37.98 92.2615 36.36C92.0748 34.7333 91.9215 33.6467 91.8015 33.1C92.1948 32.7067 92.6048 32.23 93.0315 31.67C93.4582 31.1033 93.8415 30.5467 94.1815 30H94.3015Z" fill="white"/>
</svg>
